<svg shape-rendering="auto" xmlns="http://www.w3.org/2000/svg" width="120" height="66" viewBox="0 0 120 66" xmlns:xlink="http://www.w3.org/1999/xlink">
  <defs>
    <polygon fill="#5421ff" id="a" points="119.833 65.237 119.833 .04 .778 .04 .778 65.237 119.833 65.237"/>
  </defs>
  <g transform="translate(0 .372)">
    <path fill="#5421ff" d="M91.6303,0.0402 C91.9623,1.8812 92.1463,3.7742 92.1463,5.7092 C92.1463,23.2662 77.8623,37.5492 60.3053,37.5492 C42.7493,37.5492 28.4663,23.2662 28.4663,5.7092 C28.4663,3.7742 28.6493,1.8812 28.9813,0.0402 L1.0533,0.0402 C0.8773,1.9072 0.7783,3.7962 0.7783,5.7092 C0.7783,38.5852 27.4293,65.2372 60.3053,65.2372 C93.1813,65.2372 119.8333,38.5852 119.8333,5.7092 C119.8333,3.7962 119.7343,1.9072 119.5573,0.0402 L91.6303,0.0402 Z"/>
  </g>
</svg>
