<svg shape-rendering="auto" xmlns="http://www.w3.org/2000/svg" width="114" height="120" viewBox="0 0 114 120">
  <g fill-rule="evenodd">
    <polygon fill="#5421ff" points=".611 117.166 28.957 117.166 28.957 3.78 .611 3.78"/>
    <path fill="#5421ff" d="M114.0005,90.2178 C110.4745,91.5668 106.6525,92.3138 102.6575,92.3138 C85.1015,92.3138 70.8185,78.0298 70.8185,60.4738 C70.8185,42.9168 85.1015,28.6338 102.6575,28.6338 C106.6525,28.6338 110.4745,29.3798 114.0005,30.7288 L114.0005,2.0388 C110.3275,1.3298 106.5385,0.9458 102.6575,0.9458 C69.7815,0.9458 43.1305,27.5968 43.1305,60.4728 C43.1305,93.3498 69.7815,120.0008 102.6575,120.0008 C106.5385,120.0008 110.3275,119.6168 114.0005,118.9088 L114.0005,90.2178 Z"/>
  </g>
</svg>
